<?xml version="1.0" encoding="utf-8"?>
<!-- Generator: Adobe Illustrator 17.0.0, SVG Export Plug-In . SVG Version: 6.00 Build 0)  -->
<!DOCTYPE svg PUBLIC "-//W3C//DTD SVG 1.1//EN" "http://www.w3.org/Graphics/SVG/1.1/DTD/svg11.dtd">
<svg version="1.1" id="Layer_1" xmlns="http://www.w3.org/2000/svg" xmlns:xlink="http://www.w3.org/1999/xlink" x="0px" y="0px"
	 width="626.344px" height="612px" viewBox="83.067 0 626.344 612" enable-background="new 83.067 0 626.344 612"
	 xml:space="preserve">
<image display="none" overflow="visible" enable-background="new    " width="226" height="220" xlink:href="B1E3423109F695F0.jpeg"  transform="matrix(2.7688 0 0 2.7817 83.066 0)">
</image>
<g>
	<rect x="140.442" y="57.375" fill="#583F26" width="511.594" height="499.641"/>
	
		<linearGradient id="SVGID_1_" gradientUnits="userSpaceOnUse" x1="1.5408" y1="613.9592" x2="261.0409" y2="354.4591" gradientTransform="matrix(2.3906 0 0 -2.3906 82.3719 1464.7578)">
		<stop  offset="0.005" style="stop-color:#F9C45E"/>
		<stop  offset="1" style="stop-color:#F89C1E"/>
	</linearGradient>
	<path fill="url(#SVGID_1_)" d="M652.036,57.375v499.641H140.442V57.375H652.036 M709.411,0h-57.375H140.442H83.067v57.375v499.641
		v57.375h57.375h511.594h57.375v-57.375V57.375V0L709.411,0z"/>
</g>
<linearGradient id="SVGID_2_" gradientUnits="userSpaceOnUse" x1="92.7908" y1="433.7091" x2="92.7908" y2="433.7091" gradientTransform="matrix(2.3906 0 0 -2.3906 82.3719 1464.7578)">
	<stop  offset="0.005" style="stop-color:#F9C45E"/>
	<stop  offset="1" style="stop-color:#F89C1E"/>
</linearGradient>
<path fill="none" stroke="url(#SVGID_2_)" stroke-miterlimit="10" d="M304.2,427.922"/>
<linearGradient id="SVGID_3_" gradientUnits="userSpaceOnUse" x1="74.4908" y1="509.2091" x2="158.0408" y2="425.6591" gradientTransform="matrix(2.3906 0 0 -2.3906 82.3719 1464.7578)">
	<stop  offset="0.005" style="stop-color:#F9C45E"/>
	<stop  offset="1" style="stop-color:#F89C1E"/>
</linearGradient>
<path fill="url(#SVGID_3_)" d="M419.906,430.312h57.136l-87.497-253.406h-20.32h-17.93h-20.32l-87.258,253.406h57.136l20.081-74.109
	h78.891L419.906,430.312z M330.019,322.734l30.361-112.598l30.361,112.598H330.019z"/>
<linearGradient id="SVGID_4_" gradientUnits="userSpaceOnUse" x1="155.0408" y1="496.4591" x2="205.5408" y2="445.9591" gradientTransform="matrix(2.3906 0 0 -2.3906 82.3719 1464.7578)">
	<stop  offset="0.005" style="stop-color:#F9C45E"/>
	<stop  offset="1" style="stop-color:#F89C1E"/>
</linearGradient>
<rect x="487.083" y="243.844" fill="url(#SVGID_4_)" width="52.594" height="188.859"/>
<linearGradient id="SVGID_5_" gradientUnits="userSpaceOnUse" x1="173.5359" y1="539.8641" x2="189.4457" y2="523.9542" gradientTransform="matrix(2.3906 0 0 -2.3906 82.3719 1464.7578)">
	<stop  offset="0.005" style="stop-color:#F9C45E"/>
	<stop  offset="1" style="stop-color:#F89C1E"/>
</linearGradient>
<circle fill="url(#SVGID_5_)" cx="516.248" cy="193.163" r="26.775"/>
</svg>
