<?xml version="1.0" encoding="utf-8"?>
<!-- Generator: Adobe Illustrator 17.0.0, SVG Export Plug-In . SVG Version: 6.00 Build 0)  -->
<!DOCTYPE svg PUBLIC "-//W3C//DTD SVG 1.1//EN" "http://www.w3.org/Graphics/SVG/1.1/DTD/svg11.dtd">
<svg version="1.1"
	 id="svg2" xmlns:dc="http://purl.org/dc/elements/1.1/" xmlns:cc="http://creativecommons.org/ns#" xmlns:rdf="http://www.w3.org/1999/02/22-rdf-syntax-ns#" xmlns:svg="http://www.w3.org/2000/svg" xmlns:inkscape="http://www.inkscape.org/namespaces/inkscape"
	 xmlns="http://www.w3.org/2000/svg" xmlns:xlink="http://www.w3.org/1999/xlink" x="0px" y="0px" width="335.881px"
	 height="355.809px" viewBox="188.846 279.531 335.881 355.809" enable-background="new 188.846 279.531 335.881 355.809"
	 xml:space="preserve">
<g id="g10" transform="matrix(1.25,0,0,-1.25,0,916.25)">
	<g id="g12" transform="scale(0.1,0.1)">
		<path id="path14" inkscape:connector-curvature="0" fill="#B3B3B3" d="M2850,5093.75l-1339.23-471.3l211.62-1754.63
			l1129.03-620.54l1134.85,628.95l211.55,1754.56L2850,5093.75z"/>
		<path id="path16" inkscape:connector-curvature="0" fill="#AF2B2D" d="M4064.25,4529.39l-1217.38,415.13V2395.54l1020.22,564.62
			L4064.25,4529.39z"/>
		<path id="path18" inkscape:connector-curvature="0" fill="#DF2E31" d="M1661.05,4521.89l181.34-1569.22l1004.47-557.13v2549.03
			L1661.05,4521.89L1661.05,4521.89z"/>
		<path id="path20" inkscape:connector-curvature="0" fill="#F2F2F2" d="M3129.05,3676.7l-279.96,584.64l-246.46-584.64
			L3129.05,3676.7L3129.05,3676.7z M3235.79,3430.87h-742.11l-166.02-415.26l-308.82-5.71l828.04,1842.06l856.9-1842.06h-286.23
			L3235.79,3430.87L3235.79,3430.87z"/>
		<path id="path22" inkscape:connector-curvature="0" fill="#B3B3B3" d="M2846.87,4851.96l2.21-590.62l279.67-585.09H2847.5
			l-0.63-245l388.9-0.38l181.77-421.04l295.49-5.48L2846.87,4851.96z"/>
	</g>
</g>
</svg>
