<?xml version="1.0" encoding="utf-8"?>
<!-- Generator: Adobe Illustrator 17.0.0, SVG Export Plug-In . SVG Version: 6.00 Build 0)  -->
<!DOCTYPE svg PUBLIC "-//W3C//DTD SVG 1.1//EN" "http://www.w3.org/Graphics/SVG/1.1/DTD/svg11.dtd">
<svg version="1.1" id="Layer_1" xmlns="http://www.w3.org/2000/svg" xmlns:xlink="http://www.w3.org/1999/xlink" x="0px" y="0px"
	 width="433.58px" height="612px" viewBox="179.21 0 433.58 612" enable-background="new 179.21 0 433.58 612" xml:space="preserve"
	>
<title>HTML5 Logo</title>
<polygon fill="#E44D26" points="218.668,562.845 179.21,120.272 612.79,120.272 573.29,562.776 395.735,612 "/>
<polygon fill="#F16529" points="396,574.375 539.473,534.599 573.229,156.459 396,156.459 "/>
<polygon fill="#EBEBEB" points="396,320.603 324.174,320.603 319.213,265.02 396,265.02 396,210.74 395.812,210.74 259.892,210.74 
	261.191,225.302 274.532,374.882 396,374.882 "/>
<polygon fill="#EBEBEB" points="396,461.574 395.762,461.637 335.31,445.314 331.446,402.023 302.071,402.023 276.958,402.023 
	284.562,487.25 395.75,518.117 396,518.047 "/>
<path d="M219.55,0h27.584v27.253h25.233V0h27.585v82.529h-27.584V54.894h-25.233v27.636h-27.584V0H219.55z"/>
<path d="M336.227,27.368h-24.284V0h76.165v27.368h-24.295v55.161h-27.585V27.368H336.227z"/>
<path d="M400.197,0h28.763l17.693,28.998L464.328,0h28.774v82.529h-27.471V41.623l-18.978,29.344h-0.475l-18.991-29.344v40.906
	h-26.99V0z"/>
<path d="M506.829,0h27.593v55.25h38.791v27.279h-66.384V0z"/>
<polygon fill="#FFFFFF" points="395.812,320.603 395.812,374.882 462.652,374.882 456.351,445.279 395.812,461.619 395.812,518.09 
	507.089,487.25 507.905,478.08 520.66,335.179 521.985,320.603 507.358,320.603 "/>
<polygon fill="#FFFFFF" points="395.812,210.74 395.812,244.452 395.812,264.887 395.812,265.02 526.749,265.02 526.749,265.02 
	526.924,265.02 528.013,252.819 530.486,225.302 531.784,210.74 "/>
</svg>
