<?xml version="1.0" encoding="utf-8"?>
<!-- Generator: Adobe Illustrator 17.0.0, SVG Export Plug-In . SVG Version: 6.00 Build 0)  -->
<!DOCTYPE svg PUBLIC "-//W3C//DTD SVG 1.1//EN" "http://www.w3.org/Graphics/SVG/1.1/DTD/svg11.dtd">
<svg version="1.1"
	 id="svg3163" xmlns:dc="http://purl.org/dc/elements/1.1/" xmlns:cc="http://creativecommons.org/ns#" xmlns:rdf="http://www.w3.org/1999/02/22-rdf-syntax-ns#" xmlns:svg="http://www.w3.org/2000/svg" xmlns:sodipodi="http://sodipodi.sourceforge.net/DTD/sodipodi-0.dtd" xmlns:inkscape="http://www.inkscape.org/namespaces/inkscape" sodipodi:docname="JQuery_logo.svg" inkscape:version="0.48.2 r9819"
	 xmlns="http://www.w3.org/2000/svg" xmlns:xlink="http://www.w3.org/1999/xlink" x="0px" y="0px" width="523.596px"
	 height="125.492px" viewBox="35.841 236.446 523.596 125.492" enable-background="new 35.841 236.446 523.596 125.492"
	 xml:space="preserve">
<sodipodi:namedview  inkscape:cy="283.87742" inkscape:cx="261.79501" inkscape:zoom="0.64172345" showgrid="false" guidetolerance="10" gridtolerance="10" objecttolerance="10" bordercolor="#666666" pagecolor="#ffffff" borderopacity="1" id="namedview3297" inkscape:current-layer="svg3163" inkscape:window-maximized="0" inkscape:window-y="508" inkscape:window-x="1335" inkscape:pageopacity="0" inkscape:window-height="703" inkscape:window-width="831" inkscape:pageshadow="2">
	</sodipodi:namedview>
<path id="path3165" inkscape:connector-curvature="0" fill="#131B28" d="M259.741,282.617l0.001-0.005l-3.352,11.88L259.741,282.617
	L259.741,282.617z"/>
<path id="path3167" inkscape:connector-curvature="0" fill="#131B28" d="M276.981,308.408l-3.694-0.022L276.981,308.408z"/>
<path id="path3169" inkscape:connector-curvature="0" fill="#131B28" d="M276.031,326.149h0.004l-22.131,0.081l22.128-0.081H276.031
	z"/>
<path id="path3171" inkscape:connector-curvature="0" fill="#131B28" d="M280.671,308.43l-3.695-0.022L280.671,308.43z"/>
<path id="path3173" inkscape:connector-curvature="0" fill="#131B28" d="M277.971,324.641l3.855-14.702l-3.855,14.705V324.641
	L277.971,324.641z"/>
<path id="path3175" inkscape:connector-curvature="0" fill="#131B28" d="M359.451,256.936l-7.181,33.76L359.451,256.936z"/>
<path id="path3177" inkscape:connector-curvature="0" fill="#131B28" d="M340.991,256.936l-5.452,25.22l5.452-25.222V256.936z"/>
<path id="path3179" inkscape:connector-curvature="0" fill="#131B28" d="M358.221,255.417h-15.356c-0.852,0-1.698,0.684-1.88,1.516
	l-5.452,25.222l-5.452,25.222c-0.181,0.833-1.025,1.514-1.877,1.514h-9.318h-1.552c-10.753,0-9.509-7.436-7.307-17.627
	c0.022-0.103,0.044-0.203,0.066-0.308l0.242-1.284c0.015-0.083,0.032-0.166,0.045-0.242l0.491-2.615l0.526-2.803
	c0.16-0.845,0.403-2.08,0.562-2.856l2.478-12.109l2.48-12.109c0.171-0.835-0.388-1.521-1.24-1.521h-15.762
	c-0.852,0-1.696,0.686-1.87,1.519l-3.389,16.079l-3.389,16.077c-0.003,0.007-0.004,0.017-0.005,0.024l-0.315,1.494
	c-3.904,17.822-2.869,34.817,18.347,35.349c0.347,0.01,0.615,0.013,0.615,0.013h33.302c0.852,0,1.696-0.684,1.874-1.519
	l7.181-33.757l7.181-33.76C359.626,256.102,359.073,255.418,358.221,255.417L358.221,255.417z"/>
<path id="path3181" inkscape:connector-curvature="0" fill="#131B28" d="M419.481,309.067c0.853,0,1.411,0.684,1.24,1.519
	l-1.492,7.288"/>
<path id="path3183" inkscape:connector-curvature="0" fill="#131B28" d="M417.741,325.165l1.491-7.293l-1.492,7.295
	C417.74,325.166,417.741,325.166,417.741,325.165L417.741,325.165z"/>
<path id="path3185" inkscape:connector-curvature="0" fill="#131B28" d="M415.871,326.699c0.002,0,0.005-0.002,0.007-0.002
	c-4.519,0.037-18.099,0.139-28.306,0.139c12.422,0,28.298-0.137,28.298-0.137L415.871,326.699z"/>
<path id="path3187" inkscape:connector-curvature="0" fill="#131B28" d="M378.411,299.68c-0.013-0.798,0.896-2.173,1.749-2.173
	l-1.918-0.032C377.378,306.167,378.411,299.68,378.411,299.68L378.411,299.68z"/>
<path id="path3189" inkscape:connector-curvature="0" fill="#131B28" d="M388.971,326.833c-0.098,0-0.198,0-0.295,0.002
	C388.773,326.833,388.873,326.833,388.971,326.833z"/>
<path id="path3191" inkscape:connector-curvature="0" fill="#131B28" d="M419.481,309.067c0.853,0,1.411,0.684,1.24,1.519
	l-1.492,7.288l-0.243,1.189"/>
<path id="path3193" inkscape:connector-curvature="0" fill="#131B28" d="M396.241,326.816h-0.062H396.241z"/>
<path id="path3195" inkscape:connector-curvature="0" fill="#131B28" d="M392.471,326.828h-0.219H392.471z"/>
<path id="path3197" inkscape:connector-curvature="0" fill="#131B28" d="M391.321,326.831c-0.122,0-0.242,0-0.361,0.002
	C391.079,326.831,391.199,326.831,391.321,326.831z"/>
<path id="path3199" inkscape:connector-curvature="0" fill="#131B28" d="M390.151,326.833h-0.317H390.151z"/>
<path id="path3201" inkscape:connector-curvature="0" fill="#131B28" d="M392.251,326.828c-0.311,0-0.623,0.002-0.93,0.002
	C391.628,326.83,391.94,326.828,392.251,326.828z"/>
<path id="path3203" inkscape:connector-curvature="0" fill="#131B28" d="M396.181,326.816c-1.243,0.005-2.483,0.01-3.705,0.013
	C393.698,326.827,394.94,326.822,396.181,326.816z"/>
<path id="path3205" inkscape:connector-curvature="0" fill="#131B28" d="M415.881,326.696h0.001
	c-3.312,0.027-11.49,0.088-19.646,0.12C404.388,326.787,412.568,326.723,415.881,326.696z"/>
<path id="path3207" inkscape:connector-curvature="0" fill="#131B28" d="M417.741,325.168l1.249-6.106l-1.25,6.111
	C417.74,325.171,417.741,325.171,417.741,325.168L417.741,325.168z"/>
<path id="path3209" inkscape:connector-curvature="0" fill="#131B28" d="M390.961,326.833h-0.811H390.961z"/>
<path id="path3211" inkscape:connector-curvature="0" fill="#131B28" d="M388.671,326.835h-1.096H388.671z"/>
<path id="path3213" inkscape:connector-curvature="0" fill="#131B28" d="M389.831,326.833h-0.864H389.831z"/>
<path id="path3215" inkscape:connector-curvature="0" fill="#131B28" d="M165.201,299.863l2.385-10.574l-2.727,12.087l-2.617,12.312
	l2.294-10.793C164.713,302.06,165.013,300.695,165.201,299.863L165.201,299.863z"/>
<path id="path3217" inkscape:connector-curvature="0" fill="#131B28" d="M193.751,255.239h-16.864c-0.853,0-1.704,0.681-1.895,1.511
	l-1.599,7.058l-1.599,7.061c-0.188,0.83,0.355,1.511,1.208,1.511h16.995c0.852,0,1.699-0.681,1.882-1.514l1.545-7.058l1.545-7.053
	v-0.002C195.153,255.921,194.605,255.24,193.751,255.239L193.751,255.239z"/>
<path id="path3219" inkscape:connector-curvature="0" fill="#131B28" d="M190.081,278.718v-0.002l-4.946,22.883L190.081,278.718
	L190.081,278.718z"/>
<path id="path3221" inkscape:connector-curvature="0" fill="#131B28" d="M141.091,354.536c0,0,8.501,0.11,13.905,0.11
	c-4.105,0-10.885-0.076-13.912-0.112C141.087,354.534,141.089,354.536,141.091,354.536L141.091,354.536z"/>
<path id="path3223" inkscape:connector-curvature="0" fill="#131B28" d="M169.971,278.715l-2.388,10.574L169.971,278.715z"/>
<path id="path3225" inkscape:connector-curvature="0" fill="#131B28" d="M188.861,277.202h-16.997c-0.852,0-1.704,0.681-1.892,1.514
	l-2.388,10.574l-2.385,10.574c-0.188,0.833-0.488,2.197-0.665,3.032l-2.294,10.793l-2.292,10.793
	c-0.178,0.833-0.544,2.178-0.818,2.986c0,0-3.175,9.448-8.513,9.341c-0.227-0.005-0.448-0.007-0.667-0.013
	c-2.587-0.049-4.619-0.086-4.619-0.086h-0.004c-0.851-0.013-1.707,0.652-1.906,1.479l-1.763,7.41l-1.76,7.407
	c-0.198,0.828,0.337,1.511,1.184,1.526c3.027,0.037,9.807,0.112,13.912,0.112c13.334,0,20.363-7.388,24.869-28.647l5.273-24.399
	l4.946-22.883c0.179-0.833-0.371-1.514-1.223-1.514L188.861,277.202z"/>
<path id="path3227" inkscape:connector-curvature="0" fill="#131B28" d="M430.311,325.971c-0.852,0-1.405-0.684-1.226-1.519
	l12.786-59.89"/>
<path id="path3229" inkscape:connector-curvature="0" fill="#131B28" d="M448.081,324.45l5.171-25.562L448.081,324.45z"/>
<path id="path3231" inkscape:connector-curvature="0" fill="#131B28" d="M429.271,325.212c-0.104-0.417-0.043-1.44,0.138-2.275
	l6.068-28.428l-6.393,29.944c-0.179,0.835,0.374,1.519,1.226,1.519h1.553C431.009,325.971,429.374,325.63,429.271,325.212
	L429.271,325.212z"/>
<path id="path3233" inkscape:connector-curvature="0" fill="#131B28" d="M447.071,325.629c-0.464,0.188-1.543,0.342-2.396,0.342
	h1.553c0.852,0,1.689-0.684,1.858-1.521l0.308-1.519C448.223,323.766,447.536,325.441,447.071,325.629L447.071,325.629z"/>
<path id="path3235" inkscape:connector-curvature="0" fill="#131B28" d="M450.671,311.669l2.283-11.282
	c-0.001,0.007-0.002,0.017-0.004,0.022L450.671,311.669L450.671,311.669z"/>
<path id="path3237" inkscape:connector-curvature="0" fill="#131B28" d="M501.121,268.574l0.704,2.91
	c0.194,0.833-0.344,1.509-1.195,1.511"/>
<path id="path3239" inkscape:connector-curvature="0" fill="#131B28" d="M448.391,322.932l2.277-11.262L448.391,322.932z"/>
<path id="path3241" inkscape:connector-curvature="0" fill="#131B28" d="M500.421,265.593l0.697,2.981L500.421,265.593z"/>
<path id="path3243" inkscape:connector-curvature="0" fill="#131B28" d="M452.951,300.388c0.17-0.835,0.45-2.188,0.627-3.015
	l2.438-11.421l-2.761,12.937L452.951,300.388L452.951,300.388z"/>
<path id="path3245" inkscape:connector-curvature="0" fill="#131B28" d="M442.081,263.581c-0.17,0.806-0.387,1.824-0.531,2.498
	l-6.068,28.43l6.393-29.946L442.081,263.581L442.081,263.581z"/>
<path id="path3247" inkscape:connector-curvature="0" fill="#131B28" d="M501.821,271.484l-0.704-2.91l-0.697-2.981l-0.353-1.509
	c-1.381-5.364-5.433-8.46-14.233-8.46l-13.7-0.015l-12.617-0.015h-1.083H445.32c-0.852,0-1.696,0.681-1.871,1.516h-0.001
	l-0.627,2.966l-0.741,3.503l-0.206,0.981l-6.393,29.946l-6.068,28.428c-0.181,0.835-0.242,1.858-0.138,2.275
	c0.103,0.417,1.738,0.759,2.591,0.759h12.808c0.853,0,1.932-0.154,2.396-0.342c0.465-0.188,1.152-1.863,1.322-2.698l2.277-11.262
	l2.279-11.26c0.001-0.005,0.002-0.015,0.004-0.022l0.304-1.499l2.761-12.937l2.439-11.426c0.181-0.83,1.021-1.509,1.871-1.511
	l40.3-0.02c0.851-0.002,1.389-0.679,1.195-1.511L501.821,271.484z"/>
<path id="path3249" inkscape:connector-curvature="0" fill="#131B28" d="M553.701,245.171c-0.853,0.006-2.248,0.011-3.102,0.011
	H537.7c-0.853,0-1.946,0.576-2.427,1.281l-28.523,41.787c-0.482,0.706-1.031,0.601-1.221-0.229l-2.098-9.207
	c-0.189-0.833-1.044-1.511-1.896-1.511h-18.337c-0.853,0-1.359,0.669-1.125,1.489l8.217,28.784c0.234,0.82,0.251,2.168,0.04,2.993
	l-3.582,13.931c-0.212,0.828,0.312,1.504,1.166,1.504h18.123c0.852,0,1.724-0.676,1.935-1.504l3.583-13.931
	c0.211-0.825,0.804-2.06,1.318-2.742l46.306-61.459c0.514-0.681,0.236-1.235-0.616-1.229L553.701,245.171L553.701,245.171z"/>
<path id="path3251" inkscape:connector-curvature="0" fill="#131B28" d="M408.021,281.22l-0.001-0.017
	c-0.107,0.925-0.961,1.604-1.813,1.604h-23.248c-0.803,0-1.212-0.547-1.094-1.221c0.007-0.02,0.01-0.037,0.022-0.054
	c0,0-0.008,0.002-0.015,0.007c0.005-0.027,0.005-0.051,0.013-0.078c0,0,0.044-0.164,0.106-0.396
	c2.22-5.903,6.743-9.778,15.243-9.778C406.804,271.288,408.672,275.964,408.021,281.22L408.021,281.22z M401.201,254.386
	c-29.841,0-36.912,18.113-40.879,36.394c-3.967,18.633-3.625,36.055,27.253,36.055h1.096c0.098-0.002,0.198-0.002,0.295-0.002h0.864
	h0.317h0.811c0.12-0.002,0.239-0.002,0.361-0.002c0.308,0,0.619-0.002,0.93-0.002h0.219c1.222-0.002,2.462-0.008,3.705-0.013h0.062
	c8.155-0.032,16.334-0.093,19.647-0.12c0.847-0.013,1.676-0.696,1.851-1.523l1.25-6.111l0.243-1.189l1.492-7.288
	c0.171-0.835-0.387-1.519-1.24-1.519h-27.761c-11.041,0-14.32-2.935-13.112-11.56h44.377l-0.004,0.005
	c0.011,0,0.021-0.005,0.03-0.005c0.706-0.013,1.357-0.498,1.616-1.145c0.049-0.125,0.09-0.254,0.107-0.388l-0.005,0.005
	c6.589-24.854,4.7-41.592-23.528-41.592L401.201,254.386z"/>
<path id="path3253" inkscape:connector-curvature="0" fill="#131B28" d="M260.161,281.125l-0.42,1.487
	c0,0.005-0.001,0.005-0.001,0.005l-3.351,11.875l-3.35,11.873c-0.232,0.82-1.118,1.492-1.973,1.492h-17.736
	c-13.453,0-16.729-10.522-13.453-26.042c3.275-15.874,9.697-25.742,22.938-26.741C260.91,253.709,264.53,266.436,260.161,281.125
	L260.161,281.125z M272.324,306.943c0,0,8.362-20.303,10.261-32.031c2.59-15.699-5.27-38.466-35.63-38.466
	c-30.187,0-43.295,21.737-48.297,45.367c-5.001,23.801,1.551,44.675,31.567,44.504l23.679-0.088l22.131-0.081
	c0.852-0.007,1.724-0.684,1.941-1.506l3.855-14.705c0.215-0.825-0.306-1.504-1.158-1.509l-3.695-0.022l-3.694-0.022
	c-0.725-0.005-1.14-0.474-1.052-1.096c0.016-0.112,0.042-0.227,0.09-0.347L272.324,306.943z"/>
<path id="path3255" inkscape:connector-curvature="0" fill="#131B28" d="M421.761,293.354c0,0.562-0.455,1.018-1.018,1.018
	c-0.562,0-1.018-0.457-1.018-1.018c0-0.562,0.457-1.016,1.018-1.016C421.306,292.339,421.761,292.793,421.761,293.354z"/>
<path id="path3257" inkscape:connector-curvature="0" fill="#0868AC" d="M41.819,266.955c-8.335,11.98-7.297,27.566-0.93,40.295
	c0.151,0.305,0.31,0.605,0.466,0.906c0.1,0.19,0.194,0.386,0.298,0.574c0.059,0.112,0.125,0.222,0.186,0.33
	c0.109,0.203,0.22,0.396,0.332,0.593c0.198,0.349,0.4,0.696,0.608,1.043c0.115,0.19,0.228,0.381,0.347,0.571
	c0.229,0.371,0.465,0.737,0.706,1.103c0.1,0.156,0.198,0.312,0.3,0.464c0.332,0.496,0.671,0.989,1.022,1.475
	c0.009,0.013,0.018,0.027,0.029,0.039c0.055,0.078,0.116,0.154,0.172,0.232c0.303,0.417,0.615,0.83,0.931,1.238
	c0.116,0.149,0.233,0.298,0.35,0.447c0.282,0.354,0.569,0.706,0.861,1.057c0.109,0.132,0.218,0.264,0.328,0.393
	c0.392,0.461,0.791,0.92,1.199,1.37c0.007,0.007,0.017,0.017,0.024,0.024c0.017,0.02,0.032,0.032,0.046,0.051
	c0.398,0.435,0.806,0.859,1.218,1.284c0.128,0.132,0.259,0.264,0.391,0.393c0.32,0.322,0.645,0.64,0.973,0.955
	c0.133,0.127,0.265,0.256,0.398,0.378c0.438,0.413,0.881,0.818,1.333,1.213c0.007,0.007,0.013,0.013,0.021,0.017
	c0.077,0.068,0.156,0.132,0.232,0.198c0.398,0.344,0.803,0.686,1.211,1.023c0.166,0.134,0.334,0.266,0.502,0.4
	c0.333,0.266,0.67,0.53,1.009,0.789c0.179,0.137,0.359,0.273,0.54,0.41c0.375,0.276,0.752,0.547,1.133,0.813
	c0.139,0.1,0.273,0.198,0.413,0.293c0.039,0.027,0.075,0.054,0.113,0.081c0.361,0.249,0.731,0.488,1.1,0.728
	c0.159,0.105,0.316,0.215,0.476,0.317c0.566,0.359,1.141,0.713,1.722,1.055c0.157,0.09,0.317,0.178,0.476,0.269
	c0.427,0.247,0.857,0.488,1.293,0.725c0.236,0.127,0.477,0.247,0.715,0.369c0.308,0.161,0.613,0.325,0.925,0.481
	c0.071,0.034,0.144,0.068,0.214,0.103c0.126,0.061,0.253,0.12,0.378,0.183c0.485,0.232,0.973,0.459,1.466,0.679
	c0.105,0.046,0.206,0.093,0.31,0.139c0.565,0.247,1.135,0.483,1.71,0.71c0.138,0.056,0.277,0.11,0.416,0.164
	c0.532,0.205,1.072,0.408,1.614,0.598c0.068,0.024,0.134,0.046,0.203,0.071c0.594,0.208,1.195,0.4,1.799,0.588
	c0.144,0.042,0.289,0.088,0.435,0.129c0.615,0.186,1.223,0.408,1.858,0.525c40.31,7.351,52.019-24.224,52.019-24.224
	c-9.834,12.812-27.29,16.191-43.829,12.429c-0.626-0.142-1.234-0.337-1.846-0.518c-0.155-0.046-0.308-0.093-0.46-0.139
	c-0.597-0.183-1.189-0.376-1.777-0.579c-0.081-0.029-0.162-0.059-0.244-0.088c-0.527-0.186-1.049-0.381-1.567-0.581
	c-0.146-0.059-0.293-0.115-0.439-0.173c-0.569-0.225-1.134-0.459-1.692-0.703c-0.115-0.049-0.225-0.1-0.338-0.149
	c-0.48-0.217-0.955-0.437-1.427-0.664c-0.137-0.066-0.273-0.129-0.413-0.198c-0.371-0.181-0.738-0.374-1.104-0.562
	c-0.245-0.129-0.494-0.251-0.737-0.386c-0.447-0.239-0.886-0.488-1.323-0.742c-0.148-0.083-0.298-0.163-0.447-0.249
	c-0.581-0.342-1.155-0.696-1.723-1.055c-0.157-0.1-0.31-0.207-0.465-0.31c-0.412-0.266-0.822-0.537-1.226-0.815
	c-0.134-0.091-0.263-0.188-0.395-0.278c-0.39-0.276-0.776-0.555-1.159-0.838c-0.174-0.129-0.345-0.259-0.514-0.388
	c-0.351-0.269-0.7-0.54-1.046-0.818c-0.156-0.125-0.312-0.249-0.466-0.374c-0.439-0.361-0.874-0.725-1.303-1.099
	c-0.045-0.039-0.094-0.078-0.143-0.12c-0.464-0.408-0.919-0.825-1.37-1.245c-0.131-0.125-0.258-0.247-0.386-0.371
	c-0.333-0.317-0.662-0.637-0.984-0.964c-0.129-0.129-0.259-0.256-0.386-0.386c-0.41-0.42-0.813-0.845-1.207-1.277
	c-0.02-0.022-0.04-0.042-0.06-0.064c-0.417-0.457-0.825-0.923-1.224-1.394c-0.109-0.129-0.214-0.254-0.321-0.381
	c-0.298-0.359-0.593-0.723-0.881-1.089c-0.108-0.132-0.216-0.267-0.323-0.403c-0.347-0.45-0.686-0.899-1.018-1.355
	c-9.182-12.525-12.481-29.8-5.142-43.987"/>
<path id="path3259" inkscape:connector-curvature="0" fill="#0868AC" d="M67.693,256.862c-6.028,8.674-5.701,20.286-0.999,29.46
	c0.789,1.538,1.675,3.03,2.666,4.451c0.903,1.294,1.904,2.835,3.103,3.875c0.435,0.479,0.889,0.945,1.353,1.404
	c0.117,0.12,0.237,0.234,0.356,0.352c0.45,0.437,0.908,0.867,1.382,1.284c0.02,0.015,0.037,0.034,0.056,0.049
	c0.005,0.005,0.01,0.007,0.013,0.013c0.524,0.459,1.064,0.901,1.614,1.335c0.122,0.093,0.243,0.19,0.366,0.286
	c0.551,0.422,1.112,0.837,1.688,1.233c0.017,0.013,0.032,0.024,0.049,0.037c0.254,0.176,0.513,0.339,0.77,0.508
	c0.123,0.081,0.24,0.166,0.365,0.242c0.411,0.264,0.828,0.52,1.251,0.767c0.06,0.037,0.118,0.068,0.177,0.103
	c0.365,0.21,0.735,0.417,1.106,0.618c0.129,0.073,0.261,0.137,0.393,0.205c0.256,0.134,0.513,0.271,0.774,0.4
	c0.039,0.02,0.079,0.037,0.117,0.054c0.531,0.261,1.067,0.513,1.614,0.752c0.117,0.051,0.238,0.098,0.356,0.146
	c0.437,0.186,0.879,0.366,1.323,0.537c0.188,0.071,0.378,0.139,0.566,0.208c0.403,0.149,0.807,0.286,1.215,0.422
	c0.184,0.059,0.365,0.12,0.549,0.176c0.58,0.181,1.152,0.408,1.757,0.508c31.123,5.156,38.308-18.806,38.308-18.806
	c-6.477,9.329-19.02,13.779-32.405,10.305c-0.594-0.156-1.18-0.327-1.763-0.51c-0.178-0.054-0.353-0.112-0.53-0.171
	c-0.414-0.134-0.825-0.276-1.233-0.425c-0.187-0.068-0.374-0.137-0.557-0.208c-0.447-0.171-0.889-0.349-1.327-0.535
	c-0.12-0.051-0.24-0.098-0.358-0.151c-0.549-0.239-1.09-0.491-1.623-0.754c-0.275-0.134-0.544-0.276-0.814-0.415
	c-0.156-0.081-0.314-0.161-0.47-0.242c-0.347-0.188-0.691-0.383-1.03-0.581c-0.08-0.046-0.165-0.09-0.247-0.139
	c-0.421-0.247-0.836-0.5-1.248-0.762c-0.127-0.081-0.249-0.168-0.376-0.251c-0.271-0.176-0.542-0.354-0.808-0.535
	c-0.574-0.396-1.132-0.811-1.682-1.23c-0.127-0.1-0.254-0.198-0.378-0.298c-5.859-4.626-10.503-10.947-12.711-18.115
	c-2.314-7.434-1.815-15.779,2.194-22.551"/>
<path id="path3261" inkscape:connector-curvature="0" fill="#0868AC" d="M89.454,249.321c-3.553,5.23-3.903,11.724-1.437,17.5
	c2.6,6.13,7.928,10.94,14.147,13.22c0.256,0.095,0.513,0.181,0.773,0.269c0.114,0.034,0.226,0.073,0.341,0.107
	c0.366,0.115,0.73,0.249,1.108,0.32c17.185,3.32,21.846-8.818,23.087-10.605c-4.083,5.879-10.945,7.29-19.364,5.247
	c-0.665-0.162-1.396-0.402-2.037-0.629c-0.822-0.293-1.632-0.627-2.419-1.005c-1.495-0.718-2.92-1.59-4.241-2.588
	c-7.534-5.716-12.214-16.621-7.298-25.502"/>
<path id="path3263" inkscape:connector-curvature="0" fill="#0868AC" d="M283.001,351.176l-4.954,11.282h-5.469l0.448-10.251
	l-4.026,10.251h-5.295l-0.139-11.282l0.585-2.786h3.75l-0.723,11.143l4.163-11.143h5.228l-0.378,11.282l4.128-11.282h3.267
	L283.001,351.176L283.001,351.176z"/>
<path id="path3265" inkscape:connector-curvature="0" fill="#0868AC" d="M291.631,354.516c0.482-2.202,0.344-2.615-0.791-2.615
	h-1.72l-1.101,5.161l-1.686,5.398h-3.198l2.613-12.244l0.38-1.79h2.924l0.378,0.825c0,0,1.686-0.996,3.335-0.996
	c3.509,0,3.235,2.647,2.477,6.26L291.631,354.516L291.631,354.516z"/>
<path id="path3267" inkscape:connector-curvature="0" fill="#0868AC" d="M302.021,346.636c-1.409,0-2.303-0.413-1.96-2.131
	c0.378-1.721,1.479-2.134,2.854-2.134c1.378,0,2.306,0.413,1.927,2.134C304.498,346.189,303.398,346.636,302.021,346.636
	L302.021,346.636z M300.509,362.459h-3.167l0.62-5.503l1.101-5.09l-2.201-0.483l0.619-2.991h6.018L300.509,362.459L300.509,362.459z
	"/>
<path id="path3269" inkscape:connector-curvature="0" fill="#0868AC" d="M314.231,351.376l-3.955,0.483l-1.137,5.366
	c-0.31,1.479-0.31,1.892,0.999,1.892h2.648l-0.551,2.82c0,0-2.406,0.723-3.44,0.723c-4.059,0-4.025-2.236-3.301-5.574l1.101-5.261
	l-2.202-0.481l0.653-2.993h2.306l1.307-3.545h3.13l-0.758,3.545h3.853L314.231,351.376L314.231,351.376z"/>
<path id="path3271" inkscape:connector-curvature="0" fill="#0868AC" d="M322.451,351.556c-1.857,0-2.821,0.964-3.198,2.683
	l5.297-0.447C324.79,352.623,324.549,351.556,322.451,351.556L322.451,351.556z M318.738,356.783
	c-0.243,1.721,0.411,2.305,2.612,2.305h5.537l-0.549,2.615c0,0-3.336,0.928-5.813,0.928c-6.157,0-6.227-3.472-5.435-7.188
	c0.791-3.647,2.201-7.256,8.151-7.256c5.746,0,6.022,3.472,4.611,8.596L318.738,356.783L318.738,356.783z"/>
<path id="path3273" inkscape:connector-curvature="0" fill="#0868AC" d="M340.471,362.456h-3.163l0.619-5.503l2.236-10.457
	l-2.203-0.515l0.654-2.993h6.021L340.471,362.456L340.471,362.456z"/>
<path id="path3275" inkscape:connector-curvature="0" fill="#0868AC" d="M351.901,351.556c-1.859,0-2.821,0.964-3.201,2.683
	l5.298-0.447C354.237,352.623,353.998,351.556,351.901,351.556L351.901,351.556z M348.185,356.783
	c-0.24,1.721,0.414,2.305,2.613,2.305h5.538l-0.551,2.615c0,0-3.337,0.928-5.814,0.928c-6.157,0-6.224-3.472-5.433-7.188
	c0.792-3.647,2.202-7.256,8.152-7.256c5.745,0,6.019,3.472,4.611,8.596L348.185,356.783L348.185,356.783z"/>
<path id="path3277" inkscape:connector-curvature="0" fill="#0868AC" d="M371.811,351.726c0,0-4.025,0.034-5.125,0.034
	c-2.34,0-2.581,0.72-2.751,1.477l-0.139,0.688l7.43,0.552c0,0,0.034,2.373-0.276,3.713c-0.447,2.236-2.751,4.504-6.913,4.504
	c-2.065,0-5.402-0.789-5.402-0.789l0.585-2.717h5.126c2.271,0,2.581-0.62,2.72-1.238l0.171-0.894l-7.293-0.552
	c0,0-0.275-1.824,0.103-3.645c0.552-2.478,2.82-4.609,6.982-4.609c2.064,0,5.4,0.754,5.4,0.754L371.811,351.726L371.811,351.726z"/>
<path id="path3279" inkscape:connector-curvature="0" fill="#0868AC" d="M385.641,351.726c0,0-4.023,0.034-5.125,0.034
	c-2.339,0-2.579,0.72-2.751,1.477l-0.139,0.688l7.432,0.552c0,0,0.034,2.373-0.276,3.713c-0.447,2.236-2.751,4.504-6.914,4.504
	c-2.063,0-5.4-0.789-5.4-0.789l0.585-2.717h5.126c2.269,0,2.579-0.62,2.719-1.238l0.171-0.894l-7.293-0.552
	c0,0-0.275-1.824,0.103-3.645c0.552-2.478,2.82-4.609,6.984-4.609c2.063,0,5.399,0.754,5.399,0.754L385.641,351.726L385.641,351.726
	z"/>
<path id="path3281" inkscape:connector-curvature="0" fill="#0868AC" d="M389.971,364.696h-2.75l0.103-2.065
	c-0.999-0.066-1.514-0.789-1.273-1.995c0.378-1.719,1.445-2.131,2.855-2.131c1.376,0,2.302,0.413,1.926,2.131L389.971,364.696
	L389.971,364.696z"/>
<path id="path3283" inkscape:connector-curvature="0" fill="#0868AC" d="M408.371,351.866c-2.063,0-2.784,1.238-3.267,3.508
	c-0.482,2.271-0.344,3.611,1.719,3.611h2.855l1.583-7.119H408.371z M413.084,360.636l-0.38,1.824l-2.887-0.034l-0.414-0.894
	c0,0-2.546,1.099-4.264,1.099c-4.404,0-4.611-3.611-3.82-7.256c0.791-3.716,2.511-7.224,6.88-7.224c1.583,0,3.715,0.791,3.715,0.791
	l1.754-5.95h3.165L413.084,360.636L413.084,360.636z"/>
<path id="path3285" inkscape:connector-curvature="0" fill="#0868AC" d="M424.471,351.726c-2.682,0-3.544,1.511-4.025,3.713
	c-0.447,2.236-0.239,3.75,2.407,3.75c2.753,0,3.579-1.479,4.059-3.75C427.396,353.306,427.257,351.726,424.471,351.726
	L424.471,351.726z M422.133,362.664c-5.676,0-6.124-3.543-5.367-7.224c0.792-3.679,2.787-7.188,8.463-7.188
	c5.64,0,6.157,3.508,5.364,7.188C429.803,359.19,427.807,362.664,422.133,362.664z"/>
<path id="path3287" inkscape:connector-curvature="0" fill="#0868AC" d="M454.331,362.456l0.62-5.435l0.309-1.548
	c0.448-2.063,0.723-3.577-1.445-3.577h-1.685c0.07,1.067-0.138,2.271-0.413,3.543l-1.478,7.017h-3.199l0.619-5.435l0.309-1.548
	c0.448-2.063,0.721-3.577-1.443-3.577h-1.377l-2.271,10.559h-3.682l2.993-14.067h2.889l0.447,0.859c0,0,1.962-1.033,3.544-1.033
	c1.204,0,2.098,0.552,2.408,1.238c0.687-0.378,2.649-1.238,4.06-1.238c4.399,0,4.264,3.577,3.472,7.224l-1.478,7.017
	L454.331,362.456L454.331,362.456z"/>
<path id="path3289" inkscape:connector-curvature="0" fill="#0868AC" d="M468.951,351.726c-2.684,0-3.544,1.511-4.025,3.713
	c-0.447,2.236-0.239,3.75,2.407,3.75c2.751,0,3.579-1.479,4.06-3.75C471.875,353.306,471.737,351.726,468.951,351.726z
	 M466.612,362.664c-5.677,0-6.123-3.543-5.366-7.224c0.791-3.679,2.786-7.188,8.462-7.188c5.642,0,6.157,3.508,5.365,7.188
	C474.283,359.19,472.287,362.664,466.612,362.664z"/>
<path id="path3291" inkscape:connector-curvature="0" fill="#0868AC" d="M484.631,354.516c0.481-2.202,0.344-2.615-0.79-2.615
	h-1.721l-1.101,5.161l-1.686,5.398h-3.198l2.613-12.244l0.38-1.79h2.924l0.377,0.825c0,0,1.686-0.996,3.339-0.996
	c3.507,0,3.231,2.647,2.474,6.26L484.631,354.516L484.631,354.516z"/>
<path id="path3293" inkscape:connector-curvature="0" fill="#0868AC" d="M496.951,351.556c-1.855,0-2.82,0.964-3.197,2.683
	l5.294-0.447C499.291,352.623,499.048,351.556,496.951,351.556L496.951,351.556z M493.236,356.783
	c-0.239,1.721,0.413,2.305,2.613,2.305h5.538l-0.549,2.615c0,0-3.337,0.928-5.813,0.928c-6.157,0-6.226-3.472-5.437-7.188
	c0.792-3.647,2.203-7.256,8.153-7.256c5.743,0,6.021,3.472,4.609,8.596L493.236,356.783L493.236,356.783z"/>
<path id="path3295" inkscape:connector-curvature="0" fill="#0868AC" d="M505.441,362.666c-1.445,0-2.338-0.413-1.959-2.097
	c0.342-1.724,1.409-2.134,2.855-2.134c1.34,0,2.268,0.41,1.926,2.134C507.882,362.219,506.784,362.666,505.441,362.666z"/>
</svg>
