<?xml version="1.0" encoding="utf-8"?>
<!-- Generator: Adobe Illustrator 17.0.0, SVG Export Plug-In . SVG Version: 6.00 Build 0)  -->
<!DOCTYPE svg PUBLIC "-//W3C//DTD SVG 1.1//EN" "http://www.w3.org/Graphics/SVG/1.1/DTD/svg11.dtd">
<svg version="1.1" id="svg2438" xmlns:svg="http://www.w3.org/2000/svg"
	 xmlns="http://www.w3.org/2000/svg" xmlns:xlink="http://www.w3.org/1999/xlink" x="0px" y="0px" width="377.453px" height="383px"
	 viewBox="229.444 106.138 377.453 383" enable-background="new 229.444 106.138 377.453 383" xml:space="preserve">
<g id="Layer_x0020_1">
	<path id="path2446" fill="#1F1A17" d="M420.945,137.742c41.711,0,79.69,15.984,108.161,42.154
		c-13.95-0.37-27.875,7.922-28.453,26.916c-1.171,38.401,45.917,46.574,20.541,123.812l-20.989,63.886l-57.162-168.383
		c-0.885-2.606,0.147-4.087,3.35-4.087h16.16c0.84,0,1.526-0.717,1.526-1.595v-9.571c0-0.878-0.688-1.631-1.526-1.595
		c-30.604,1.338-61.027,1.347-91.264,0c-0.838-0.037-1.526,0.718-1.526,1.595v9.571c0,0.877,0.687,1.595,1.526,1.595h16.249
		c3.614,0,4.626,1.204,5.479,3.534l23.491,64.236l-35.334,106.679l-58.07-171.059c-0.726-2.14,0.145-3.389,2.216-3.389h18.515
		c0.84,0,1.526-0.717,1.526-1.595v-9.571c0-0.878-0.689-1.639-1.526-1.595c-19.426,1.032-38.925,1.239-57.089,1.426
		C315.248,166.795,364.708,137.743,420.945,137.742L420.945,137.742z M561.577,221.502c12.287,22.638,19.264,48.574,19.264,76.136
		c0,60.484-33.606,113.129-83.156,140.296l49.877-141.241C555.283,274.831,562.454,245.29,561.577,221.502L561.577,221.502z
		 M474.481,448.333c-16.739,5.951-34.757,9.201-53.536,9.201c-16.174,0-31.783-2.413-46.5-6.881l49.259-141.164L474.481,448.333
		L474.481,448.333z M352.528,442.181c-54.073-25.644-91.479-80.731-91.479-144.543c0-23.653,5.145-46.107,14.367-66.309
		L352.528,442.181L352.528,442.181z M420.945,122.74c96.576,0,174.898,78.322,174.898,174.898s-78.322,174.898-174.898,174.898
		s-174.898-78.322-174.898-174.898S324.368,122.74,420.945,122.74L420.945,122.74z M420.945,111.686
		c102.681,0,185.953,83.272,185.953,185.953s-83.272,185.953-185.953,185.953S234.992,400.32,234.992,297.639
		S318.263,111.686,420.945,111.686L420.945,111.686z"/>
</g>
</svg>
